<?xml version="1.0" encoding="UTF-8"?>
<svg enable-background="new -0.954 -0.698 55 55" viewBox="-0.954 -0.698 55 55" xmlns="http://www.w3.org/2000/svg">
 <path d="m0 26.699c0-14.752 11.961-26.699 26.723-26.699s26.718 11.947 26.718 26.699-11.961 26.707-26.719 26.707-26.722-11.959-26.722-26.707" fill="#4e90cd"/>
 <path d="m3.762 26.699c0-12.684 10.281-22.961 22.961-22.961s22.957 10.278 22.957 22.961-10.278 22.973-22.957 22.973-22.961-10.289-22.961-22.973" fill="#fff"/>
 <path d="m37.68,31.424c0-3.617-2.199-5.713-4.918-6.084v-.068c2-.365 4.078-2.357 4.078-4.996 0-5.537-5.078-6.477-9.238-6.477h-9.559v25.549h9.156c4.844,0 10.481-1.485 10.481-7.924m-6.2-10.389c0,2.936-3,2.896-4.918,2.896h-2.84v-5.861h2.758c1.84,0 5-.074 5,2.965zm.52,10.24c0,3.332-2.32,3.84-4.957,3.84h-3.32v-7.129h3c1.879,0 5.277.11 5.277,3.289z" fill="#4e90cd"/>
</svg>
